<?xml version="1.0" encoding="UTF-8"?>
<svg version="1.1" xmlns="http://www.w3.org/2000/svg" width="48" height="48">
<path d="M0 0 C7.91938899 1.9509865 12.81895465 7.10899035 17.0546875 13.84765625 C17.6796875 15.66015625 17.6796875 15.66015625 16.6796875 18.66015625 C16.3496875 18.33015625 16.0196875 18.00015625 15.6796875 17.66015625 C13.8667294 23.95218729 13.59681321 27.41153339 15.6796875 33.66015625 C14.6896875 34.15515625 14.6896875 34.15515625 13.6796875 34.66015625 C14.3396875 35.32015625 14.9996875 35.98015625 15.6796875 36.66015625 C15.6796875 37.65015625 15.6796875 38.64015625 15.6796875 39.66015625 C16.9996875 39.99015625 18.3196875 40.32015625 19.6796875 40.66015625 C19.6796875 41.32015625 19.6796875 41.98015625 19.6796875 42.66015625 C19.0196875 42.66015625 18.3596875 42.66015625 17.6796875 42.66015625 C18.3396875 43.65015625 18.9996875 44.64015625 19.6796875 45.66015625 C19.6796875 46.65015625 19.6796875 47.64015625 19.6796875 48.66015625 C6.1496875 48.66015625 -7.3803125 48.66015625 -21.3203125 48.66015625 C-20.25024881 40.0996467 -20.25024881 40.0996467 -17.3203125 36.66015625 C-17.3203125 35.67015625 -17.3203125 34.68015625 -17.3203125 33.66015625 C-16.8253125 33.16515625 -16.8253125 33.16515625 -16.3203125 32.66015625 C-17.3103125 32.33015625 -18.3003125 32.00015625 -19.3203125 31.66015625 C-17.4453125 27.78515625 -17.4453125 27.78515625 -16.3203125 26.66015625 C-16.41971995 24.902548 -16.52216258 23.14504916 -16.64135742 21.38867188 C-16.98758927 14.94890462 -16.87023317 10.11621797 -13.0078125 4.66015625 C-8.98998073 0.44321069 -5.75024854 -0.56546765 0 0 Z " fill="#A4358D" transform="translate(25.3203125,-0.66015625)"/>
<path d="M0 0 C3 1 3 1 5 4 C5.125 7.1875 5.125 7.1875 5 10 C4.01 10.495 4.01 10.495 3 11 C2.67 10.34 2.34 9.68 2 9 C-0.09350689 12.4019487 -0.17942163 15.05272412 0 19 C0.99 19.33 1.98 19.66 3 20 C2.34 21.32 1.68 22.64 1 24 C1.78375 23.525625 2.5675 23.05125 3.375 22.5625 C4.88948678 21.66101977 6.4235897 20.78820515 8 20 C7.67 20.598125 7.34 21.19625 7 21.8125 C5.35291825 25.41549134 6.18114721 27.87282437 7.4375 31.4375 C8.43097472 34.27394232 9.31328396 37.0731229 10 40 C10.66 40 11.32 40 12 40 C14.24736663 35.80491562 15 32.79167039 15 28 C20.75 26.875 20.75 26.875 23 28 C23.33 27.34 23.66 26.68 24 26 C24.66 25.34 25.32 24.68 26 24 C26.66 25.32 27.32 26.64 28 28 C27.01 28.495 27.01 28.495 26 29 C26.66 29.66 27.32 30.32 28 31 C28 31.99 28 32.98 28 34 C29.32 34.33 30.64 34.66 32 35 C32 35.66 32 36.32 32 37 C31.34 37 30.68 37 30 37 C30.66 37.99 31.32 38.98 32 40 C32 40.99 32 41.98 32 43 C18.47 43 4.94 43 -9 43 C-7.92993631 34.43949045 -7.92993631 34.43949045 -5 31 C-5 30.01 -5 29.02 -5 28 C-4.67 27.67 -4.34 27.34 -4 27 C-4.99 26.67 -5.98 26.34 -7 26 C-5.125 22.125 -5.125 22.125 -4 21 C-4.04159457 17.68756007 -4.12722171 14.38609256 -4.30273438 11.078125 C-4.39876438 7.2084715 -4.16228528 5.24327037 -1.98828125 1.984375 C-1.33214844 1.32953125 -0.67601562 0.6746875 0 0 Z " fill="#8E5D91" transform="translate(13,5)"/>
<path d="M0 0 C7.75206301 0.0109338 12.59348294 1.58803281 18.11328125 7.09375 C20.36073671 9.6613372 22.463892 12.32380242 23.58203125 15.56640625 C23.25203125 16.55640625 22.92203125 17.54640625 22.58203125 18.56640625 C22.25203125 18.23640625 21.92203125 17.90640625 21.58203125 17.56640625 C21.14890625 19.45359375 21.14890625 19.45359375 20.70703125 21.37890625 C20.00899586 24.42034615 19.3775654 25.87310503 17.58203125 28.56640625 C17.31390625 27.65890625 17.04578125 26.75140625 16.76953125 25.81640625 C15.66311265 22.78831323 14.6162941 21.00752167 12.58203125 18.56640625 C12.14632813 17.93089844 11.710625 17.29539062 11.26171875 16.640625 C9.41476239 14.35984866 7.61826756 13.06824203 5.14453125 11.50390625 C2.84683264 10.03820003 0.60228383 8.58160484 -1.578125 6.9453125 C-3.37343979 5.51427443 -3.37343979 5.51427443 -5.41796875 4.56640625 C-3.82856917 1.91036642 -3.078806 0.72120658 0 0 Z " fill="#D078C2" transform="translate(19.41796875,-0.56640625)"/>
<path d="M0 0 C3 1 3 1 5 4 C5.125 7.1875 5.125 7.1875 5 10 C4.01 10.495 4.01 10.495 3 11 C2.67 10.34 2.34 9.68 2 9 C-0.09350689 12.4019487 -0.17942163 15.05272412 0 19 C0.99 19.33 1.98 19.66 3 20 C2.34 21.32 1.68 22.64 1 24 C1.78375 23.525625 2.5675 23.05125 3.375 22.5625 C4.88948678 21.66101977 6.4235897 20.78820515 8 20 C7.67 20.598125 7.34 21.19625 7 21.8125 C4.97455992 26.24315018 6.86254725 29.66796122 8.44140625 33.94140625 C9 36 9 36 8 38 C5.36 36.35 2.72 34.7 0 33 C-0.33 33.66 -0.66 34.32 -1 35 C-2.32 34.34 -3.64 33.68 -5 33 C-4.43454163 36.95820859 -3.19097652 39.6659053 -1 43 C-3.64 43 -6.28 43 -9 43 C-8.3253012 34.90361446 -8.3253012 34.90361446 -5 31 C-5 30.01 -5 29.02 -5 28 C-4.67 27.67 -4.34 27.34 -4 27 C-4.99 26.67 -5.98 26.34 -7 26 C-5.125 22.125 -5.125 22.125 -4 21 C-4.04159457 17.68756007 -4.12722171 14.38609256 -4.30273438 11.078125 C-4.39876438 7.2084715 -4.16228528 5.24327037 -1.98828125 1.984375 C-1.33214844 1.32953125 -0.67601562 0.6746875 0 0 Z " fill="#AC96B2" transform="translate(13,5)"/>
<path d="M0 0 C0.99 0.33 1.98 0.66 3 1 C3.33 1.99 3.66 2.98 4 4 C6.01508358 4.73323796 6.01508358 4.73323796 8 5 C8.3669579 11.48292295 8.3669579 11.48292295 6.625 13.9375 C5 15 5 15 3 15 C3.2475 15.86625 3.495 16.7325 3.75 17.625 C4.07523578 22.01568308 2.76773209 23.67872149 0 27 C-0.66 27 -1.32 27 -2 27 C-4.74214641 21.88963623 -7 16.87889416 -7 11 C-5.2983156 8.84684832 -3.42556869 6.92202434 -1.53125 4.9375 C0.31002725 3.0193108 0.31002725 3.0193108 0 0 Z " fill="#FCC82C" transform="translate(25,18)"/>
<path d="M0 0 C0.99 0.99 1.98 1.98 3 3 C2.34 3.66 1.68 4.32 1 5 C1.66 5.66 2.32 6.32 3 7 C3 7.99 3 8.98 3 10 C4.32 10.33 5.64 10.66 7 11 C7 11.66 7 12.32 7 13 C6.34 13 5.68 13 5 13 C4.67 13.66 4.34 14.32 4 15 C4 14.34 4 13.68 4 13 C3.401875 13.495 2.80375 13.99 2.1875 14.5 C0 16 0 16 -3 16 C-3.33 16.66 -3.66 17.32 -4 18 C-4.125 12.25 -4.125 12.25 -3 10 C-4.98 10.33 -6.96 10.66 -9 11 C-9.33 8.69 -9.66 6.38 -10 4 C-4.25 2.875 -4.25 2.875 -2 4 C-1.67 3.34 -1.34 2.68 -1 2 C-0.67 1.34 -0.34 0.68 0 0 Z " fill="#AD819C" transform="translate(38,29)"/>
<path d="M0 0 C3 1 3 1 5 4 C5.125 7.1875 5.125 7.1875 5 10 C4.01 10.495 4.01 10.495 3 11 C2.67 10.34 2.34 9.68 2 9 C-0.09350689 12.4019487 -0.17942163 15.05272412 0 19 C0.99 19.33 1.98 19.66 3 20 C2.01 21.32 1.02 22.64 0 24 C-0.33 22.68 -0.66 21.36 -1 20 C-1.66 20 -2.32 20 -3 20 C-4.30277115 15.11460818 -4.63261765 10.01164635 -4 5 C-2 1.875 -2 1.875 0 0 Z " fill="#CB78B8" transform="translate(13,5)"/>
<path d="M0 0 C0.928125 0.495 1.85625 0.99 2.8125 1.5 C5.86527516 3.21289852 5.86527516 3.21289852 9 3 C9.13277344 3.67546875 9.26554687 4.3509375 9.40234375 5.046875 C9.57894531 5.93890625 9.75554688 6.8309375 9.9375 7.75 C10.11152344 8.63171875 10.28554688 9.5134375 10.46484375 10.421875 C10.92247191 12.62650703 11.45390014 14.81560057 12 17 C9.03 17.33 6.06 17.66 3 18 C3.66 17.01 4.32 16.02 5 15 C5.39387788 12.67612053 5.73486085 10.34206251 6 8 C4.35 7.67 2.7 7.34 1 7 C0.67 6.01 0.34 5.02 0 4 C-0.66 3.34 -1.32 2.68 -2 2 C-1.34 2 -0.68 2 0 2 C0 1.34 0 0.68 0 0 Z " fill="#89674D" transform="translate(27,15)"/>
<path d="M0 0 C0.99 0.33 1.98 0.66 3 1 C2.34 3.31 1.68 5.62 1 8 C1.66 8.33 2.32 8.66 3 9 C2.67 10.65 2.34 12.3 2 14 C0.02 14 -1.96 14 -4 14 C-4.33 14.66 -4.66 15.32 -5 16 C-6.41000664 13.17998673 -6.24548451 11.12992745 -6 8 C-4.5 5.125 -4.5 5.125 -3 3 C-2.34 3.66 -1.68 4.32 -1 5 C-0.67 3.35 -0.34 1.7 0 0 Z " fill="#B88C66" transform="translate(18,10)"/>
<path d="M0 0 C0.66 0.33 1.32 0.66 2 1 C2 2.32 2 3.64 2 5 C2.78375 4.505 3.5675 4.01 4.375 3.5 C7 2 7 2 9 2 C9 2.66 9 3.32 9 4 C9.99 4.33 10.98 4.66 12 5 C12 5.99 12 6.98 12 8 C6.06 8 0.12 8 -6 8 C-2.625 2.375 -2.625 2.375 0 0 Z " fill="#BA67B4" transform="translate(33,40)"/>
<path d="M0 0 C2.64 0.33 5.28 0.66 8 1 C8.75 3.125 8.75 3.125 9 6 C7.1875 9.3125 7.1875 9.3125 5 12 C4.34 12 3.68 12 3 12 C0.58314288 7.77050005 -0.34833144 4.87664009 0 0 Z " fill="#DAB02F" transform="translate(20,33)"/>
<path d="M0 0 C0.99 0.33 1.98 0.66 3 1 C3.33 1.99 3.66 2.98 4 4 C6.01508358 4.73323796 6.01508358 4.73323796 8 5 C8 7.31 8 9.62 8 12 C7.67 12 7.34 12 7 12 C7 10.02 7 8.04 7 6 C3.58357241 5.74984127 3.58357241 5.74984127 0 6 C-0.99 7.485 -0.99 7.485 -2 9 C-1.01 9.33 -0.02 9.66 1 10 C1 11.32 1 12.64 1 14 C0.071875 13.835 -0.85625 13.67 -1.8125 13.5 C-4.95621353 12.92251612 -4.95621353 12.92251612 -8 13 C-7.04367001 11.70684939 -6.08486149 10.41553147 -5.125 9.125 C-4.59132813 8.40570313 -4.05765625 7.68640625 -3.5078125 6.9453125 C-2 5 -2 5 0 3 C0 2.01 0 1.02 0 0 Z " fill="#DD9E2B" transform="translate(25,18)"/>
<path d="M0 0 C1.41764994 0.93601246 2.83407568 1.8738792 4.25 2.8125 C5.03890625 3.33457031 5.8278125 3.85664062 6.640625 4.39453125 C10.03806081 6.70636257 13.16178359 9.01987277 16 12 C15.01 13.485 15.01 13.485 14 15 C13.34 14.01 12.68 13.02 12 12 C11.01 12.495 11.01 12.495 10 13 C10 12.34 10 11.68 10 11 C8.15274948 10.30840599 8.15274948 10.30840599 6 10 C5.01 10.66 4.02 11.32 3 12 C3.33 10.35 3.66 8.7 4 7 C3.01 6.319375 3.01 6.319375 2 5.625 C1.34 5.08875 0.68 4.5525 0 4 C0 3.34 0 2.68 0 2 C-0.66 1.67 -1.32 1.34 -2 1 C-1.34 0.67 -0.68 0.34 0 0 Z " fill="#985A95" transform="translate(16,4)"/>
<path d="M0 0 C10.14744146 4.27146574 10.14744146 4.27146574 13 7 C13 7.66 13 8.32 13 9 C5.28756601 9.90734518 5.28756601 9.90734518 2.25390625 7.76953125 C0.875 6.1875 0.875 6.1875 -1 3 C-0.67 2.01 -0.34 1.02 0 0 Z " fill="#CF69BF" transform="translate(8,39)"/>
<path d="M0 0 C0.99 0.33 1.98 0.66 3 1 C3.66 4.3 4.32 7.6 5 11 C1.37 9.02 -2.26 7.04 -6 5 C-2 1 -2 1 0 0 Z " fill="#4390A0" transform="translate(17,32)"/>
<path d="M0 0 C0.99 0.66 1.98 1.32 3 2 C3 2.99 3 3.98 3 5 C4.32 5.33 5.64 5.66 7 6 C7 6.66 7 7.32 7 8 C6.34 8 5.68 8 5 8 C4.67 8.66 4.34 9.32 4 10 C4 9.34 4 8.68 4 8 C3.38125 8.495 2.7625 8.99 2.125 9.5 C0 11 0 11 -2 11 C-2 9.02 -2 7.04 -2 5 C-1.01 4.67 -0.02 4.34 1 4 C0.67 2.68 0.34 1.36 0 0 Z " fill="#C685BE" transform="translate(38,34)"/>
<path d="M0 0 C0.33 0 0.66 0 1 0 C1.13277344 0.67546875 1.26554687 1.3509375 1.40234375 2.046875 C1.57894531 2.93890625 1.75554688 3.8309375 1.9375 4.75 C2.19853516 6.07257812 2.19853516 6.07257812 2.46484375 7.421875 C2.92247191 9.62650703 3.45390014 11.81560057 4 14 C-0.455 14.495 -0.455 14.495 -5 15 C-4.34 14.01 -3.68 13.02 -3 12 C-2.34 12 -1.68 12 -1 12 C-1.020625 10.7625 -1.04125 9.525 -1.0625 8.25 C-1.06766681 5.3359175 -0.93015558 2.79046673 0 0 Z " fill="#7E4E75" transform="translate(35,18)"/>
<path d="M0 0 C2.25 -0.25 2.25 -0.25 5 0 C7.3125 2 7.3125 2 9 4 C3.25 7 3.25 7 1 7 C0.67 4.69 0.34 2.38 0 0 Z " fill="#45C0DA" transform="translate(28,33)"/>
<path d="M0 0 C0.99 0.33 1.98 0.66 3 1 C3.33 1.99 3.66 2.98 4 4 C6.01508358 4.73323796 6.01508358 4.73323796 8 5 C8 7.31 8 9.62 8 12 C7.67 12 7.34 12 7 12 C7 10.02 7 8.04 7 6 C2.20691658 5.53477707 2.20691658 5.53477707 -1.9375 7.5 C-2.288125 7.995 -2.63875 8.49 -3 9 C-3 8.01 -3 7.02 -3 6 C-2 5 -1 4 0 3 C0 2.01 0 1.02 0 0 Z " fill="#E1BC48" transform="translate(25,18)"/>
<path d="M0 0 C0 3.15084005 -0.45473667 4.33871316 -2 7 C-4.13562754 9.13562754 -5.06546739 9.63318342 -8 10 C-8.66 9.34 -9.32 8.68 -10 8 C-9.34 7.34 -8.68 6.68 -8 6 C-7.01 6 -6.02 6 -5 6 C-5 5.34 -5 4.68 -5 4 C-3.37373596 2.61767557 -1.7074998 1.28062485 0 0 Z " fill="#6C6580" transform="translate(20,25)"/>
<path d="M0 0 C1.68762851 1.6454378 3.3540349 3.31288577 5 5 C5 5.33 5 5.66 5 6 C2.36 6 -0.28 6 -3 6 C-2.67 4.68 -2.34 3.36 -2 2 C-1.34 2 -0.68 2 0 2 C0 1.34 0 0.68 0 0 Z " fill="#62697A" transform="translate(7,42)"/>
<path d="M0 0 C1.32 0.66 2.64 1.32 4 2 C4 2.99 4 3.98 4 5 C1.69 5 -0.62 5 -3 5 C-2.01 3.35 -1.02 1.7 0 0 Z " fill="#4D4A4D" transform="translate(41,43)"/>
<path d="M0 0 C0.66 0 1.32 0 2 0 C2.33 1.65 2.66 3.3 3 5 C2.01 5.495 2.01 5.495 1 6 C0.01 5.67 -0.98 5.34 -2 5 C-1.125 1.125 -1.125 1.125 0 0 Z " fill="#825983" transform="translate(10,25)"/>
<path d="M0 0 C1.65 0 3.3 0 5 0 C3.1875 2.5 3.1875 2.5 1 5 C0.01 5 -0.98 5 -2 5 C-1.34 3.35 -0.68 1.7 0 0 Z " fill="#A92389" transform="translate(16,24)"/>
<path d="M0 0 C0.99 0.99 1.98 1.98 3 3 C2.34 4.32 1.68 5.64 1 7 C0.01 6.67 -0.98 6.34 -2 6 C-1.125 1.125 -1.125 1.125 0 0 Z " fill="#615A54" transform="translate(18,16)"/>
<path d="M0 0 C2.475 0.495 2.475 0.495 5 1 C5.33 2.65 5.66 4.3 6 6 C5.01 5.34 4.02 4.68 3 4 C2.01 4.495 2.01 4.495 1 5 C0.67 3.35 0.34 1.7 0 0 Z " fill="#BC8FB6" transform="translate(37,12)"/>
<path d="M0 0 C2.4375 0.1875 2.4375 0.1875 5 1 C6.3125 3.0625 6.3125 3.0625 7 5 C1.25 3.25 1.25 3.25 -1 1 C-0.67 0.67 -0.34 0.34 0 0 Z " fill="#45C0DA" transform="translate(12,35)"/>
<path d="M0 0 C0.6875 2.0625 0.6875 2.0625 1 4 C-4.75 2.25 -4.75 2.25 -7 0 C-3.98968256 -0.93423645 -3.13349732 -1.04449911 0 0 Z " fill="#995897" transform="translate(16,39)"/>
<path d="M0 0 C1.65 0 3.3 0 5 0 C4.01 1.98 3.02 3.96 2 6 C1.34 5.34 0.68 4.68 0 4 C0 2.68 0 1.36 0 0 Z " fill="#44919F" transform="translate(28,33)"/>
</svg>
