<?xml version="1.0" encoding="UTF-8"?>
<svg version="1.1" xmlns="http://www.w3.org/2000/svg" width="48" height="48">
<path d="M0 0 C10.7524465 -0.86096102 10.7524465 -0.86096102 14.5625 2.3125 C17 5 17 5 19 8 C19 6.68 19 5.36 19 4 C19.66 4 20.32 4 21 4 C22.25664978 6.90600261 23 8.79604584 23 12 C23.66 12 24.32 12 25 12 C25.66 9.36 26.32 6.72 27 4 C27.66 4 28.32 4 29 4 C29 5.32 29 6.64 29 8 C29.86625 6.8553125 29.86625 6.8553125 30.75 5.6875 C35.36855597 0.17089148 35.36855597 0.17089148 39.796875 -0.29296875 C40.77140625 -0.25816406 41.7459375 -0.22335937 42.75 -0.1875 C43.73484375 -0.16042969 44.7196875 -0.13335937 45.734375 -0.10546875 C46.48203125 -0.07066406 47.2296875 -0.03585937 48 0 C47.62011958 3.26697157 47.23796376 5.61330888 45.5 8.4375 C43.63408237 11.62510928 43.39788569 14.35271453 43 18 C42.79375 18.680625 42.5875 19.36125 42.375 20.0625 C41.83811228 22.13113025 41.83811228 22.13113025 42.625 24.6875 C43.14529562 29.28344463 41.66820954 32.7587893 40 37 C39.34 37 38.68 37 38 37 C38 37.99 38 38.98 38 40 C35.3125 40.875 35.3125 40.875 32 41 C28.10579421 37.37130824 26.3615634 34.19869661 25 29 C24.34 29 23.68 29 23 29 C22.773125 29.86625 22.54625 30.7325 22.3125 31.625 C20.68903048 35.7996359 19.28526213 37.93873302 16 41 C12.6875 40.875 12.6875 40.875 10 40 C10 39.01 10 38.02 10 37 C9.34 37 8.68 37 8 37 C4.60327803 28.70969552 4.60327803 28.70969552 5.4375 23.875 C6.06780826 19.53287641 5.4430226 17.10122211 4 13 C3.67 11.9275 3.34 10.855 3 9.75 C2.06516295 6.8410419 2.06516295 6.8410419 0 4 C0 2.68 0 1.36 0 0 Z M20 9 C20.33 10.32 20.66 11.64 21 13 C21.33 12.34 21.66 11.68 22 11 C21.34 10.34 20.68 9.68 20 9 Z M27 9 C26.67 10.32 26.34 11.64 26 13 C26.66 12.67 27.32 12.34 28 12 C27.67 11.01 27.34 10.02 27 9 Z " fill="#211E20" transform="translate(0,4)"/>
<path d="M0 0 C6.41144336 1.17761205 9.94064358 3.9231268 14 9 C16.23251284 12.69470177 15.95567811 14.79501632 15 19 C15.66 19 16.32 19 17 19 C16.40647445 22.75899514 15.75135888 26.50738091 15.0625 30.25 C14.90910156 31.10078125 14.75570313 31.9515625 14.59765625 32.828125 C14 35 14 35 12 37 C10.68 37 9.36 37 8 37 C4.65826561 33.61429542 3.07831373 29.9397648 2.6875 25.25 C2.790625 24.1775 2.89375 23.105 3 22 C3 18.55852313 2.67760723 15.67538551 2.0625 12.3125 C1.88847656 11.33925781 1.71445313 10.36601562 1.53515625 9.36328125 C1.23351102 7.05568494 1.23351102 7.05568494 0 6 C-0.04080783 4.00041636 -0.04254356 1.99954746 0 0 Z " fill="#2EB7F7" transform="translate(5,5)"/>
<path d="M0 0 C0.04254356 1.99954746 0.04080783 4.00041636 0 6 C-0.33 6.33 -0.66 6.66 -1 7 C-1.3988419 8.76130913 -1.74463174 10.53479235 -2.0625 12.3125 C-2.23910156 13.27800781 -2.41570313 14.24351563 -2.59765625 15.23828125 C-3.09971423 18.68444622 -3.00187061 21.96570556 -2.8125 25.4375 C-3.08522354 30.61924732 -5.22445711 33.58403262 -9 37 C-11.38671875 36.3671875 -11.38671875 36.3671875 -14 35 C-15.14453125 32.3203125 -15.14453125 32.3203125 -15.8125 29.125 C-16.04582031 28.07570313 -16.27914063 27.02640625 -16.51953125 25.9453125 C-17 23 -17 23 -17 19 C-16.34 19 -15.68 19 -15 19 C-15.28875 18.175 -15.5775 17.35 -15.875 16.5 C-16.0607409 11.29925485 -13.42771655 8.70414531 -10 5 C-4.35897436 0 -4.35897436 0 0 0 Z " fill="#32C6F9" transform="translate(43,5)"/>
<path d="M0 0 C10.75169724 -0.86090102 10.75169724 -0.86090102 14.5 2.25 C15.7375 3.61125 15.7375 3.61125 17 5 C17.639375 5.70125 18.27875 6.4025 18.9375 7.125 C19.288125 7.74375 19.63875 8.3625 20 9 C19.67 9.99 19.34 10.98 19 12 C18.57589844 11.45730469 18.15179687 10.91460937 17.71484375 10.35546875 C17.12832031 9.64003906 16.54179687 8.92460937 15.9375 8.1875 C15.36902344 7.47980469 14.80054688 6.77210937 14.21484375 6.04296875 C11.34256833 3.39358596 8.6422134 2.3860524 5 1 C5.28875 2.25296875 5.5775 3.5059375 5.875 4.796875 C6.25022512 6.44786552 6.62521271 8.09891004 7 9.75 C7.19078125 10.575 7.3815625 11.4 7.578125 12.25 C7.75859375 13.04921875 7.9390625 13.8484375 8.125 14.671875 C8.29257813 15.4050293 8.46015625 16.13818359 8.6328125 16.89355469 C9.18967794 20.08812582 8.98853807 23.15473602 8.75 26.375 C9.04740268 30.68733888 10.45781179 32.58393459 13 36 C13 36.66 13 37.32 13 38 C15.47627099 37.36078035 15.47627099 37.36078035 18 36 C19.36078035 33.47627099 19.36078035 33.47627099 20 31 C20.66 31 21.32 31 22 31 C20.81836542 35.33266012 19.76901393 38.38262921 16 41 C12.75 40.75 12.75 40.75 10 40 C10 39.01 10 38.02 10 37 C9.34 37 8.68 37 8 37 C4.60327803 28.70969552 4.60327803 28.70969552 5.4375 23.875 C6.06780826 19.53287641 5.4430226 17.10122211 4 13 C3.67 11.9275 3.34 10.855 3 9.75 C2.06516295 6.8410419 2.06516295 6.8410419 0 4 C0 2.68 0 1.36 0 0 Z " fill="#1B1D24" transform="translate(0,4)"/>
<path d="M0 0 C0.66 0 1.32 0 2 0 C3.25664978 2.90600261 4 4.79604584 4 8 C4.66 8 5.32 8 6 8 C6.66 5.36 7.32 2.72 8 0 C8.66 0 9.32 0 10 0 C9.84402344 0.55429688 9.68804687 1.10859375 9.52734375 1.6796875 C9.33269531 2.40414063 9.13804688 3.12859375 8.9375 3.875 C8.74027344 4.59429688 8.54304688 5.31359375 8.33984375 6.0546875 C7.78867393 8.07273593 7.78867393 8.07273593 9 10 C9.039992 11.99960012 9.04346799 14.00047242 9 16 C8.34 16 7.68 16 7 16 C7.350625 16.886875 7.70125 17.77375 8.0625 18.6875 C9.01755602 22.06203126 8.97151132 23.69686152 8 27 C7.34 27 6.68 27 6 27 C6 26.34 6 25.68 6 25 C5.34 25 4.68 25 4 25 C4 25.66 4 26.32 4 27 C3.01 27 2.02 27 1 27 C2 19.57142857 2 19.57142857 3 16 C2.34 16 1.68 16 1 16 C1 12.33333333 1 8.66666667 1 5 C0.68911632 3.32900023 0.35919668 1.66128463 0 0 Z " fill="#545356" transform="translate(19,8)"/>
<path d="M0 0 C0.433125 0.9590625 0.433125 0.9590625 0.875 1.9375 C1.82823451 4.15206079 1.82823451 4.15206079 4 5 C4 5.66 4 6.32 4 7 C4.598125 6.649375 5.19625 6.29875 5.8125 5.9375 C8 5 8 5 11 6 C10.71788123 7.6266848 10.42397625 9.25132896 10.125 10.875 C9.96257813 11.77992187 9.80015625 12.68484375 9.6328125 13.6171875 C9 16 9 16 7 18 C5.68 18 4.36 18 3 18 C-0.34886054 14.60707551 -1.90054829 10.86665058 -2.4375 6.1875 C-2 3 -2 3 0 0 Z " fill="#26B4FB" transform="translate(10,24)"/>
<path d="M0 0 C1.5 1.0625 1.5 1.0625 3 3 C3.55723713 8.01513419 3.02688425 10.96415434 0 15 C-1.6875 16.8125 -1.6875 16.8125 -3 18 C-5.375 17.625 -5.375 17.625 -8 16 C-9.08008783 12.72174346 -9.57730231 9.41943506 -10 6 C-7 5 -7 5 -4.8125 5.9375 C-4.214375 6.288125 -3.61625 6.63875 -3 7 C-3 6.34 -3 5.68 -3 5 C-2.34 4.67 -1.68 4.34 -1 4 C-0.34786708 1.97536745 -0.34786708 1.97536745 0 0 Z " fill="#24AAF8" transform="translate(37,24)"/>
<path d="M0 0 C2.0625 -0.4375 2.0625 -0.4375 5 0 C8.97936119 2.89027286 11.63376124 5.65712454 12.9375 10.4375 C12.958125 11.283125 12.97875 12.12875 13 13 C10.69 12.01 8.38 11.02 6 10 C6 10.66 6 11.32 6 12 C5.01 12.33 4.02 12.66 3 13 C2.66376204 11.7090864 2.33110751 10.41723903 2 9.125 C1.814375 8.40570313 1.62875 7.68640625 1.4375 6.9453125 C1 5 1 5 1 3 C0.67 2.01 0.34 1.02 0 0 Z " fill="#43C4FA" transform="translate(7,7)"/>
<path d="M0 0 C0.98484375 0.02707031 1.9696875 0.05414063 2.984375 0.08203125 C3.73203125 0.11683594 4.4796875 0.15164063 5.25 0.1875 C4.92506385 3.7617977 4.61129314 5.74462453 2.3125 8.5625 C0.25 10.1875 0.25 10.1875 -1.75 10.1875 C-1.09 7.2175 -0.43 4.2475 0.25 1.1875 C-6.01223021 3.88673716 -9.69211018 6.71549707 -13.75 12.1875 C-14.08 11.1975 -14.41 10.2075 -14.75 9.1875 C-10.59272861 3.48609923 -7.43693031 -0.26560465 0 0 Z " fill="#343B3E" transform="translate(42.75,3.8125)"/>
<path d="M0 0 C-0.6679675 4.94295951 -2.20864763 6.5922642 -6.04296875 9.60546875 C-7.10451172 10.38857422 -7.10451172 10.38857422 -8.1875 11.1875 C-8.90292969 11.71730469 -9.61835938 12.24710938 -10.35546875 12.79296875 C-10.89816406 13.19128906 -11.44085937 13.58960938 -12 14 C-12.73828125 12.29296875 -12.73828125 12.29296875 -13 10 C-11.41796875 7.67578125 -11.41796875 7.67578125 -9.1875 5.3125 C-8.45917969 4.52488281 -7.73085938 3.73726562 -6.98046875 2.92578125 C-4.40469607 0.42113444 -3.63074837 0 0 0 Z " fill="#3DD6FB" transform="translate(41,6)"/>
<path d="M0 0 C2.33944736 0.28730055 4.6739143 0.61936779 7 1 C7 1.66 7 2.32 7 3 C7.99 3 8.98 3 10 3 C10 4.32 10 5.64 10 7 C7.35261084 8.4606285 6.10551666 9 3 9 C3 8.34 3 7.68 3 7 C2.01 6.67 1.02 6.34 0 6 C-0.38218767 4.34385343 -0.71395102 2.67542976 -1 1 C-0.67 0.67 -0.34 0.34 0 0 Z " fill="#2DCBFE" transform="translate(11,22)"/>
<path d="M0 0 C0.33 0 0.66 0 1 0 C1.29586132 5.02964252 1.0496128 7.9338496 -2 12 C-3.6875 13.8125 -3.6875 13.8125 -5 15 C-7.4375 14.25 -7.4375 14.25 -10 13 C-10.8125 10.875 -10.8125 10.875 -11 9 C-10.01 9 -9.02 9 -8 9 C-7.67 9.66 -7.34 10.32 -7 11 C-6.01 10.67 -5.02 10.34 -4 10 C-4 9.01 -4 8.02 -4 7 C-3.34 7 -2.68 7 -2 7 C-1.34 4.69 -0.68 2.38 0 0 Z " fill="#207ED9" transform="translate(39,27)"/>
<path d="M0 0 C0.99 0 1.98 0 3 0 C3.04254356 1.99954746 3.04080783 4.00041636 3 6 C2.67 6.33 2.34 6.66 2 7 C1.46620556 9.83494192 1.03490823 12.67992619 0.59765625 15.53125 C0.40042969 16.3459375 0.20320313 17.160625 0 18 C-0.66 18.33 -1.32 18.66 -2 19 C-1.67 16.69 -1.34 14.38 -1 12 C-2.65 11.67 -4.3 11.34 -6 11 C-4.71937515 9.2925002 -3.38232443 7.62626404 -2 6 C-1.34 6 -0.68 6 0 6 C0 4.02 0 2.04 0 0 Z " fill="#36B7FC" transform="translate(40,5)"/>
<path d="M0 0 C0.33 0.66 0.66 1.32 1 2 C1.66 2 2.32 2 3 2 C3 2.66 3 3.32 3 4 C3.66 4 4.32 4 5 4 C5 4.99 5 5.98 5 7 C6.32 7 7.64 7 9 7 C9.99 7.33 10.98 7.66 12 8 C10.75 10 10.75 10 9 12 C7.68 12 6.36 12 5 12 C3.515625 10.390625 3.515625 10.390625 2.25 8.25 C1.60804687 7.20585938 1.60804687 7.20585938 0.953125 6.140625 C0 4 0 4 0 0 Z " fill="#2088E3" transform="translate(8,30)"/>
<path d="M0 0 C10.75169724 -0.86090102 10.75169724 -0.86090102 14.5 2.25 C15.7375 3.61125 15.7375 3.61125 17 5 C17.639375 5.70125 18.27875 6.4025 18.9375 7.125 C19.288125 7.74375 19.63875 8.3625 20 9 C19.67 9.99 19.34 10.98 19 12 C18.57589844 11.45730469 18.15179687 10.91460937 17.71484375 10.35546875 C13.81040965 5.59291727 10.87293936 2.91769449 5 1 C5 2.98 5 4.96 5 7 C4.01 5.68 3.02 4.36 2 3 C1.01 3.495 1.01 3.495 0 4 C0 2.68 0 1.36 0 0 Z " fill="#343A40" transform="translate(0,4)"/>
<path d="M0 0 C3.3 0 6.6 0 10 0 C9.67 1.32 9.34 2.64 9 4 C8.34 4 7.68 4 7 4 C7 4.66 7 5.32 7 6 C4.61435923 5.42415568 2.33317216 4.77772405 0 4 C0 2.68 0 1.36 0 0 Z " fill="#27CDFF" transform="translate(27,25)"/>
<path d="M0 0 C1.04274021 3.20063314 0.90361734 5.15586321 0 8.375 C-0.95646712 12.2327507 -1.00234477 15.09085538 0 19 C-3.6579592 16.56136053 -4.08808406 15.22797389 -5 11 C-4.1875 8.4375 -4.1875 8.4375 -3 6 C-2.835 5.0925 -2.67 4.185 -2.5 3.25 C-2.335 2.5075 -2.17 1.765 -2 1 C-1.34 0.67 -0.68 0.34 0 0 Z " fill="#172123" transform="translate(43,13)"/>
<path d="M0 0 C0.33 0 0.66 0 1 0 C1 1.65 1 3.3 1 5 C1.66 5 2.32 5 3 5 C3 4.01 3 3.02 3 2 C3.66 2 4.32 2 5 2 C5.33 3.98 5.66 5.96 6 8 C5.01 8.33 4.02 8.66 3 9 C3 8.34 3 7.68 3 7 C2.34 7 1.68 7 1 7 C1 7.66 1 8.32 1 9 C0.01 9 -0.98 9 -2 9 C-1.125 2.25 -1.125 2.25 0 0 Z " fill="#525047" transform="translate(22,26)"/>
<path d="M0 0 C0.99 0 1.98 0 3 0 C3 1.98 3 3.96 3 6 C3.99 6.33 4.98 6.66 6 7 C6 9.64 6 12.28 6 15 C5.01 15.495 5.01 15.495 4 16 C3.87882813 15.37351562 3.75765625 14.74703125 3.6328125 14.1015625 C3.46523437 13.28429688 3.29765625 12.46703125 3.125 11.625 C2.96257812 10.81289062 2.80015625 10.00078125 2.6328125 9.1640625 C2.13341068 6.81326077 2.13341068 6.81326077 0 5 C-0.125 2.375 -0.125 2.375 0 0 Z " fill="#182022" transform="translate(1,5)"/>
<path d="M0 0 C0.2475 0.639375 0.495 1.27875 0.75 1.9375 C1.81562433 4.18741541 1.81562433 4.18741541 4.125 4.75 C4.74375 4.8325 5.3625 4.915 6 5 C6 5.66 6 6.32 6 7 C7.98 7 9.96 7 12 7 C12 7.99 12 8.98 12 10 C10.35 10.66 8.7 11.32 7 12 C7 11.34 7 10.68 7 10 C6.34 10 5.68 10 5 10 C5 9.01 5 8.02 5 7 C4.34 7 3.68 7 3 7 C3 6.34 3 5.68 3 5 C2.34 5 1.68 5 1 5 C0.67 3.35 0.34 1.7 0 0 Z " fill="#249FF2" transform="translate(8,27)"/>
<path d="M0 0 C3.16115776 1.36983503 3.9927092 1.9890638 6 5 C5.625 7.1875 5.625 7.1875 5 9 C3.02 7.35 1.04 5.7 -1 4 C-0.67 2.68 -0.34 1.36 0 0 Z " fill="#3BD4F8" transform="translate(14,11)"/>
<path d="M0 0 C0.33 0.66 0.66 1.32 1 2 C0.34 2 -0.32 2 -1 2 C-1.33 3.65 -1.66 5.3 -2 7 C-4.97 6.505 -4.97 6.505 -8 6 C-8.33 4.35 -8.66 2.7 -9 1 C-6.61435923 1.57584432 -4.33317216 2.22227595 -2 3 C-2 2.34 -2 1.68 -2 1 C-1.34 0.67 -0.68 0.34 0 0 Z " fill="#26B6FC" transform="translate(36,28)"/>
<path d="M0 0 C2.56228655 4.48400145 2.09192822 8.08632301 1 13 C0.01 13 -0.98 13 -2 13 C-1.70703125 11.01432292 -1.4140625 9.02864583 -1.12109375 7.04296875 C-0.86095201 4.7974658 -0.86095201 4.7974658 -2 2 C-1.34 1.34 -0.68 0.68 0 0 Z " fill="#1F2D34" transform="translate(7,19)"/>
<path d="M0 0 C-0.49831724 3.68754757 -1.10067643 5.60490662 -4 8 C-4.66 7.67 -5.32 7.34 -6 7 C-6 6.34 -6 5.68 -6 5 C-6.66 4.67 -7.32 4.34 -8 4 C-3.375 0 -3.375 0 0 0 Z " fill="#42BEF8" transform="translate(41,6)"/>
<path d="M0 0 C0.66 0 1.32 0 2 0 C0.8172603 4.33671225 -0.26757779 7.33398414 -4 10 C-6.75 9.75 -6.75 9.75 -9 9 C-8.67 8.01 -8.34 7.02 -8 6 C-6.35 6 -4.7 6 -3 6 C-2.01 4.02 -1.02 2.04 0 0 Z " fill="#281E19" transform="translate(20,35)"/>
<path d="M0 0 C2.475 0.495 2.475 0.495 5 1 C4.01 1.33 3.02 1.66 2 2 C2.99 3.65 3.98 5.3 5 7 C4.34 7 3.68 7 3 7 C3 8.65 3 10.3 3 12 C2.67 12 2.34 12 2 12 C0.40861915 7.82262526 -0.21278058 4.46839215 0 0 Z " fill="#359DEC" transform="translate(5,5)"/>
<path d="M0 0 C3.65316671 1.24976756 4.78065836 1.67098753 7 5 C6.34 5 5.68 5 5 5 C5 5.66 5 6.32 5 7 C4.01 7.33 3.02 7.66 2 8 C1.34 5.36 0.68 2.72 0 0 Z " fill="#36C0FE" transform="translate(8,12)"/>
<path d="M0 0 C0.99 0 1.98 0 3 0 C3.21278058 4.46839215 2.59138085 7.82262526 1 12 C0.67 12 0.34 12 0 12 C0 10.35 0 8.7 0 7 C-0.66 6.67 -1.32 6.34 -2 6 C-1.34 6 -0.68 6 0 6 C0 4.02 0 2.04 0 0 Z " fill="#3297E4" transform="translate(40,5)"/>
<path d="M0 0 C2.97 0.495 2.97 0.495 6 1 C6 2.65 6 4.3 6 6 C5.01 6.495 5.01 6.495 4 7 C3.01 6.34 2.02 5.68 1 5 C1.33 3.68 1.66 2.36 2 1 C1.34 0.67 0.68 0.34 0 0 Z " fill="#30C3FE" transform="translate(33,16)"/>
<path d="M0 0 C1.98 0.66 3.96 1.32 6 2 C6 2.99 6 3.98 6 5 C4.35 5.33 2.7 5.66 1 6 C0.67 4.02 0.34 2.04 0 0 Z " fill="#29A4F0" transform="translate(27,18)"/>
<path d="M0 0 C0.99 0.33 1.98 0.66 3 1 C1.75 3 1.75 3 0 5 C-1.32 5 -2.64 5 -4 5 C-3.67 3.68 -3.34 2.36 -3 1 C-3 1.66 -3 2.32 -3 3 C-2.34 3 -1.68 3 -1 3 C-0.67 2.01 -0.34 1.02 0 0 Z " fill="#2271C4" transform="translate(17,37)"/>
<path d="M0 0 C0.33 0 0.66 0 1 0 C1.3125 3.3125 1.3125 3.3125 1 7 C-1.5 8.9375 -1.5 8.9375 -4 10 C-4 9.01 -4 8.02 -4 7 C-3.34 7 -2.68 7 -2 7 C-1.34 4.69 -0.68 2.38 0 0 Z " fill="#1F8DE6" transform="translate(39,27)"/>
<path d="M0 0 C0.66 0 1.32 0 2 0 C2.33 1.98 2.66 3.96 3 6 C2.01 6.33 1.02 6.66 0 7 C-1.04449911 3.86650268 -0.93423645 3.01031744 0 0 Z " fill="#5C5B54" transform="translate(25,28)"/>
<path d="M0 0 C2.52259061 1.97420135 2.9929808 2.96745642 3.6875 6.1875 C3.790625 7.115625 3.89375 8.04375 4 9 C0.39345961 6.59563974 0.14547068 5.05320393 -1 1 C-0.67 0.67 -0.34 0.34 0 0 Z " fill="#273136" transform="translate(39,23)"/>
<path d="M0 0 C2.64 0 5.28 0 8 0 C7.67 0.66 7.34 1.32 7 2 C4.67843403 2.40729228 2.3431213 2.74438677 0 3 C0 2.01 0 1.02 0 0 Z " fill="#2CE1FE" transform="translate(27,25)"/>
<path d="M0 0 C2.31 0 4.62 0 7 0 C7 0.99 7 1.98 7 3 C6.34 3 5.68 3 5 3 C4.67 3.66 4.34 4.32 4 5 C3.67 4.01 3.34 3.02 3 2 C2.01 2 1.02 2 0 2 C0 1.34 0 0.68 0 0 Z " fill="#26A1F2" transform="translate(28,34)"/>
<path d="M0 0 C2.64 0 5.28 0 8 0 C7.67 0.99 7.34 1.98 7 3 C4.0625 2.625 4.0625 2.625 1 2 C0.67 1.34 0.34 0.68 0 0 Z " fill="#2CE2FE" transform="translate(13,25)"/>
<path d="M0 0 C0.99 0 1.98 0 3 0 C3.99 1.98 4.98 3.96 6 6 C3.5625 5.25 3.5625 5.25 1 4 C0.1875 1.875 0.1875 1.875 0 0 Z " fill="#257BCD" transform="translate(28,36)"/>
<path d="M0 0 C0.33 0 0.66 0 1 0 C0.67 2.97 0.34 5.94 0 9 C-0.66 8.67 -1.32 8.34 -2 8 C-1.125 1.125 -1.125 1.125 0 0 Z " fill="#1C181A" transform="translate(41,29)"/>
<path d="M0 0 C0.99 0 1.98 0 3 0 C3.33 2.31 3.66 4.62 4 7 C2.68 6.34 1.36 5.68 0 5 C0 3.35 0 1.7 0 0 Z " fill="#161715" transform="translate(1,5)"/>
</svg>
