<?xml version="1.0" encoding="UTF-8"?>
<svg version="1.1" xmlns="http://www.w3.org/2000/svg" width="48" height="48">
<path d="M0 0 C15.84 0 31.68 0 48 0 C48 15.84 48 31.68 48 48 C32.16 48 16.32 48 0 48 C0 32.16 0 16.32 0 0 Z " fill="#7148E9" transform="translate(0,0)"/>
<path d="M0 0 C0.66 0.66 1.32 1.32 2 2 C1.44444444 6.55555556 1.44444444 6.55555556 0 8 C-5.37154932 8.52405359 -9.12098958 7.01890086 -14 5 C-14 4.34 -14 3.68 -14 3 C-12.42274653 2.29866401 -10.83788667 1.614417 -9.25 0.9375 C-7.92742188 0.36322266 -7.92742188 0.36322266 -6.578125 -0.22265625 C-3.80815263 -1.05784489 -2.6405261 -1.09639236 0 0 Z " fill="#F6BA3D" transform="translate(34,22)"/>
<path d="M0 0 C3 -0.3125 3 -0.3125 6 0 C6.66 0.66 7.32 1.32 8 2 C7.93359375 4.44921875 7.93359375 4.44921875 7 7 C4.78515625 8.58203125 4.78515625 8.58203125 2.0625 9.8125 C1.16660156 10.23144531 0.27070313 10.65039062 -0.65234375 11.08203125 C-3 12 -3 12 -5 12 C-4.54738642 10.56068883 -4.08767021 9.12361001 -3.625 7.6875 C-3.24214844 6.48673828 -3.24214844 6.48673828 -2.8515625 5.26171875 C-2 3 -2 3 0 0 Z " fill="#F7BB3C" transform="translate(24,12)"/>
<path d="M0 0 C2.33944736 0.28730055 4.6739143 0.61936779 7 1 C6.58846263 5.97093824 6.20399168 10.44508386 4 15 C3.34 15 2.68 15 2 15 C-2.0623358 6.99737282 -2.0623358 6.99737282 -1.8125 3 C-1 1 -1 1 0 0 Z " fill="#F9BC3A" transform="translate(14,8)"/>
<path d="M0 0 C4.75481646 0.57634139 7.97048212 2.55068521 12 5 C12.125 7.375 12.125 7.375 12 10 C10 12 10 12 7.375 12.125 C6.59125 12.08375 5.8075 12.0425 5 12 C4.16180842 10.37750059 3.3295884 8.75191503 2.5 7.125 C2.0359375 6.22007813 1.571875 5.31515625 1.09375 4.3828125 C0 2 0 2 0 0 Z " fill="#F9BD39" transform="translate(19,28)"/>
</svg>
